<svg version="1.0" xmlns="http://www.w3.org/2000/svg"
 viewBox="0 0 96.000000 96.000000"
 preserveAspectRatio="xMidYMid meet">

<g transform="translate(0.000000,96.000000) scale(0.100000,-0.100000)"
fill="current" stroke="none">
<path d="M315 881 c-11 -5 -33 -23 -50 -41 -25 -26 -30 -40 -30 -80 l0 -50
117 -117 118 -118 -113 -113 -112 -112 0 -50 c0 -43 5 -54 33 -82 28 -28 39
-33 82 -33 l50 0 169 169 c177 177 203 215 182 268 -5 12 -86 99 -179 191
-152 152 -173 169 -208 173 -21 2 -48 0 -59 -5z"/>
</g>
</svg>
