<?xml version="1.0" encoding="UTF-8"?>
<svg version="1.1" viewBox="0 0 700 700" xmlns="http://www.w3.org/2000/svg">
 <g>
  <path fill="current" d="m350 525c-64.977 0-127.29-25.812-173.24-71.758-45.945-45.949-71.758-108.27-71.758-173.24s25.812-127.29 71.758-173.24c45.949-45.945 108.27-71.758 173.24-71.758s127.29 25.812 173.24 71.758c45.945 45.949 71.758 108.27 71.758 173.24 0 43.008-11.32 85.254-32.824 122.5-21.504 37.246-52.43 68.172-89.676 89.676-37.246 21.504-79.492 32.824-122.5 32.824zm0-455c-55.695 0-109.11 22.125-148.49 61.508-39.383 39.383-61.508 92.797-61.508 148.49s22.125 109.11 61.508 148.49c39.383 39.383 92.797 61.508 148.49 61.508s109.11-22.125 148.49-61.508c39.383-39.383 61.508-92.797 61.508-148.49s-22.125-109.11-61.508-148.49c-39.383-39.383-92.797-61.508-148.49-61.508z"/>
  <path fill="current" d="m350 348.6c-4.4844 0-8.7969-1.7227-12.051-4.8086-3.25-3.0898-5.1953-7.3086-5.4258-11.785-0.23438-4.4766 1.2617-8.875 4.1758-12.281l87.5-102.2v-0.003906c4.0664-4.75 10.355-6.9727 16.5-5.8281 6.1484 1.1445 11.219 5.4805 13.301 11.375 2.0859 5.8945 0.86328 12.453-3.1992 17.203l-87.5 102.2v0.003906c-3.3242 3.8867-8.1836 6.125-13.301 6.125z"/>
  <path fill="current" d="m350 348.6c-5.1172 0-9.9766-2.2383-13.301-6.125l-87.5-102.2v-0.003906c-4.0625-4.75-5.2852-11.309-3.1992-17.203 2.082-5.8945 7.1523-10.23 13.301-11.375 6.1445-1.1445 12.434 1.0781 16.5 5.8281l87.5 102.2v0.003906c2.9141 3.4062 4.4102 7.8047 4.1758 12.281-0.23047 4.4766-2.1758 8.6953-5.4258 11.785-3.2539 3.0859-7.5664 4.8086-12.051 4.8086z"/>
 </g>
</svg>
