<svg version="1.0" xmlns="http://www.w3.org/2000/svg"
 viewBox="0 0 64.000000 64.000000"
 preserveAspectRatio="xMidYMid meet">

<g transform="translate(0.000000,64.000000) scale(0.100000,-0.100000)"
fill="current" stroke="none">
<path d="M140 550 c0 -5 18 -10 39 -10 l40 0 5 -97 c2 -54 6 -114 8 -133 3
-33 1 -35 -50 -54 -58 -21 -76 -41 -86 -98 -8 -46 10 -60 104 -82 82 -20 158
-20 240 0 94 22 112 36 104 82 -10 57 -29 79 -86 100 -51 19 -53 21 -50 54 2
18 6 77 8 131 5 87 7 97 25 97 16 0 19 -7 19 -50 0 -27 5 -50 10 -50 6 0 10
23 10 50 0 28 5 50 10 50 6 0 10 5 10 10 0 6 -67 10 -180 10 -113 0 -180 -4
-180 -10z m260 -50 l0 -40 -80 0 -80 0 0 40 0 40 80 0 80 0 0 -40z m0 -104 c0
-57 -37 -106 -80 -106 -43 0 -80 49 -80 106 l0 44 80 0 80 0 0 -44z m-50 -119
c26 10 32 9 41 -8 9 -17 4 -27 -28 -62 -20 -23 -40 -42 -43 -42 -3 0 -23 19
-43 42 -33 36 -36 44 -26 61 10 16 16 18 41 8 20 -7 36 -7 58 1z m-72 -102
l42 -48 43 48 c23 26 45 54 49 61 6 9 16 10 43 1 45 -13 62 -34 67 -77 3 -33
1 -35 -47 -54 -69 -27 -228 -29 -302 -3 -29 10 -55 22 -57 26 -2 3 -1 22 2 41
6 29 16 39 52 58 37 18 47 20 55 9 5 -8 29 -35 53 -62z"/>
</g>
</svg>
