<svg version="1.0" xmlns="http://www.w3.org/2000/svg"
 viewBox="0 0 64.000000 64.000000"
 preserveAspectRatio="xMidYMid meet">

<g transform="translate(0.000000,64.000000) scale(0.100000,-0.100000)"
fill="current" stroke="none">
<path d="M477 614 c-4 -4 -7 -25 -7 -47 0 -30 4 -40 19 -44 13 -3 17 -11 14
-24 -5 -16 0 -19 37 -19 37 0 42 3 37 19 -3 13 1 21 15 24 16 5 19 13 16 49
l-3 43 -60 3 c-34 2 -64 0 -68 -4z m113 -44 c0 -29 -1 -30 -50 -30 -49 0 -50
1 -50 30 0 29 1 30 50 30 49 0 50 -1 50 -30z m-35 -60 c3 -5 -3 -10 -15 -10
-12 0 -18 5 -15 10 3 6 10 10 15 10 5 0 12 -4 15 -10z"/>
<path d="M140 535 c0 -25 5 -45 10 -45 6 0 10 16 10 35 l0 35 135 0 c83 0 135
4 135 10 0 6 -55 10 -145 10 l-145 0 0 -45z"/>
<path d="M20 362 l0 -108 43 -42 43 -42 107 0 107 0 0 107 0 107 -42 43 -42
43 -108 0 -108 0 0 -108z m235 58 l29 -30 -85 0 c-82 0 -86 1 -114 30 l-29 30
85 0 c82 0 86 -1 114 -30z m-155 -129 l0 -85 -30 29 c-29 28 -30 32 -30 114
l0 85 30 -29 c29 -28 30 -32 30 -114z m200 -11 l0 -90 -90 0 -90 0 0 90 0 90
90 0 90 0 0 -90z"/>
<path d="M482 424 c-20 -14 -22 -24 -22 -104 0 -80 2 -90 22 -104 29 -20 87
-20 116 0 20 14 22 24 22 104 0 80 -2 90 -22 104 -12 9 -38 16 -58 16 -20 0
-46 -7 -58 -16z m108 -14 c13 -9 13 -11 0 -20 -19 -13 -81 -13 -100 0 -13 9
-13 11 0 20 8 5 31 10 50 10 19 0 42 -5 50 -10z m10 -56 c0 -15 -23 -24 -60
-24 -37 0 -60 9 -60 24 0 7 22 11 60 11 38 0 60 -4 60 -11z m0 -55 c0 -20 -20
-29 -60 -29 -40 0 -60 9 -60 29 0 13 11 16 60 16 49 0 60 -3 60 -16z m0 -55
c0 -15 -23 -24 -60 -24 -37 0 -60 9 -60 24 0 7 22 11 60 11 38 0 60 -4 60 -11z"/>
<path d="M340 320 c0 -5 23 -10 50 -10 28 0 50 5 50 10 0 6 -22 10 -50 10 -27
0 -50 -4 -50 -10z"/>
<path d="M475 148 c-2 -7 -6 -38 -7 -68 l-3 -55 73 -3 c84 -3 86 -1 75 78 l-8
55 -63 3 c-44 2 -64 -1 -67 -10z m115 -38 c0 -29 -1 -30 -50 -30 -49 0 -50 1
-50 30 0 29 1 30 50 30 49 0 50 -1 50 -30z m10 -60 c0 -6 -27 -10 -60 -10 -33
0 -60 4 -60 10 0 6 27 10 60 10 33 0 60 -4 60 -10z"/>
<path d="M140 105 l0 -45 145 0 c90 0 145 4 145 10 0 6 -52 10 -135 10 l-135
0 0 35 c0 19 -4 35 -10 35 -5 0 -10 -20 -10 -45z"/>
</g>
</svg>
