<svg version="1.0" xmlns="http://www.w3.org/2000/svg"
 viewBox="0 0 50.000000 50.000000"
 preserveAspectRatio="xMidYMid meet">

<g transform="translate(0.000000,50.000000) scale(0.100000,-0.100000)"
fill="current" stroke="none">
<path d="M155 456 c-60 -28 -87 -56 -114 -116 -36 -79 -19 -183 42 -249 33
-36 115 -71 167 -71 52 0 134 35 167 71 34 37 63 110 63 159 0 52 -35 134 -71
167 -37 34 -110 63 -159 63 -27 0 -65 -10 -95 -24z m85 -41 c0 -45 0 -45 -35
-45 -19 0 -35 3 -35 8 0 17 53 82 67 82 2 0 3 -20 3 -45z m70 0 c27 -43 26
-45 -15 -45 -35 0 -35 0 -35 45 0 53 17 53 50 0z m-143 -5 c-19 -34 -27 -40
-56 -40 l-34 0 19 21 c19 22 73 59 86 59 3 0 -3 -18 -15 -40z m181 26 c15 -8
38 -26 51 -40 l24 -26 -34 0 c-29 0 -37 6 -56 40 -24 45 -23 46 15 26z m-212
-117 c-3 -17 -6 -38 -6 -45 0 -10 -13 -14 -45 -14 -50 0 -49 -1 -34 53 9 35
12 37 51 37 40 0 40 0 34 -31z m104 -14 l0 -45 -45 0 c-48 0 -50 3 -39 59 6
28 10 31 45 31 l39 0 0 -45z m104 14 c11 -56 9 -59 -39 -59 l-45 0 0 45 0 45
39 0 c35 0 39 -3 45 -31z m105 -6 c15 -54 16 -53 -34 -53 -32 0 -45 4 -45 14
0 7 -3 28 -6 45 -6 31 -6 31 34 31 39 0 42 -2 51 -37z m-319 -87 c0 -7 3 -28
6 -45 6 -31 6 -31 -34 -31 -39 0 -42 2 -51 38 -15 53 -16 52 34 52 32 0 45 -4
45 -14z m110 -31 l0 -45 -39 0 c-35 0 -39 3 -45 31 -11 56 -9 59 39 59 l45 0
0 -45z m110 31 c0 -7 -3 -28 -6 -45 -6 -28 -10 -31 -45 -31 l-39 0 0 45 0 45
45 0 c32 0 45 -4 45 -14z m110 7 c0 -5 -5 -25 -11 -45 -9 -36 -12 -38 -51 -38
-40 0 -40 0 -34 31 3 17 6 38 6 45 0 10 13 14 45 14 25 0 45 -3 45 -7z m-293
-143 c12 -22 19 -40 17 -40 -14 0 -62 31 -83 54 l-24 26 34 0 c29 0 37 -6 56
-40z m73 -5 c0 -53 -17 -53 -50 0 -27 43 -26 45 15 45 35 0 35 0 35 -45z m90
39 c0 -14 -41 -72 -55 -78 -12 -4 -15 4 -15 39 0 45 0 45 35 45 19 0 35 -3 35
-6z m69 -20 c-21 -23 -69 -54 -83 -54 -2 0 5 18 17 40 19 34 27 40 56 40 l34
0 -24 -26z"/>
</g>
</svg>
