<svg version="1.0" xmlns="http://www.w3.org/2000/svg"
 viewBox="0 0 64.000000 64.000000"
 preserveAspectRatio="xMidYMid meet">

<g transform="translate(0.000000,64.000000) scale(0.100000,-0.100000)"
fill="current" stroke="none">
<path d="M102 508 c-7 -7 -12 -44 -12 -94 l0 -83 -37 -3 -38 -3 0 -115 0 -115
75 0 75 0 3 43 3 42 46 0 c37 0 44 -3 39 -16 -3 -9 -6 -18 -6 -20 0 -2 -11 -4
-25 -4 -20 0 -25 -5 -25 -25 l0 -25 203 0 c145 0 206 3 215 12 17 17 17 259 0
276 -7 7 -25 12 -40 12 -27 0 -28 2 -28 53 0 29 -5 58 -12 65 -17 17 -419 17
-436 0z m428 -63 l0 -55 -48 0 c-26 0 -53 -5 -60 -12 -7 -7 -12 -38 -12 -70
l0 -58 -119 0 -120 0 -3 38 c-3 32 -7 37 -30 40 l-28 3 0 85 0 84 210 0 210 0
0 -55z m80 -85 c0 -6 -37 -10 -90 -10 -53 0 -90 4 -90 10 0 6 37 10 90 10 53
0 90 -4 90 -10z m0 -120 l0 -90 -90 0 -90 0 0 90 0 90 90 0 90 0 0 -90z m-554
55 c4 -8 18 -15 34 -15 16 0 30 7 34 15 3 8 10 15 16 15 6 0 10 -38 10 -100
l0 -100 -60 0 -60 0 0 100 c0 62 4 100 10 100 6 0 13 -7 16 -15z m354 -80 c0
-12 -20 -15 -120 -15 -100 0 -120 3 -120 15 0 13 20 15 120 15 100 0 120 -2
120 -15z m-50 -39 c0 -2 3 -11 6 -20 5 -13 -2 -16 -45 -16 -28 0 -51 2 -51 4
0 24 17 36 51 36 21 0 39 -2 39 -4z m50 -16 c0 -11 -4 -20 -10 -20 -5 0 -10 2
-10 4 0 2 -3 11 -6 20 -4 11 -1 16 10 16 9 0 16 -8 16 -20z m200 -40 c0 -6
-37 -10 -90 -10 -53 0 -90 4 -90 10 0 6 37 10 90 10 53 0 90 -4 90 -10z m-242
-7 c-26 -2 -71 -2 -100 0 -29 2 -8 3 47 3 55 0 79 -1 53 -3z"/>
</g>
</svg>
